<svg version="1" xmlns="http://www.w3.org/2000/svg" width="1384" height="1384" viewBox="0 0 1038.000000 1038.000000"><path d="M482 14.6c-25 3-51.8 9.3-75.1 17.8-12.4 4.5-36.6 15-38.2 16.5-.4.4-2.5 7.3-4.6 15.2-2.7 10.2-4.2 14.3-5.2 14.2-.8-.1-8-1.4-16.2-2.8L328 72.9l-7.4 5.1c-23.4 16.2-59.5 49.5-78.5 72.5-23.2 28.1-43.1 57.6-59.6 88.9l-6.7 12.6 5.5 13.4 5.5 13.4-13.4 4.3-13.4 4.3-3.1 8c-23.5 60.8-37.3 125.3-40.4 190.1l-.7 13 9.7 10.3 9.7 10.2-9.7 10.3-9.6 10.2.6 13c3.1 64.4 16.9 129.3 40.4 190.1l3.1 8.1 13.4 4.2 13.4 4.2-5.5 13.5-5.5 13.4 6.7 12.6c34.8 65.9 85.4 125 138.1 161.4l7.3 5.1 14.8-2.6c8.1-1.4 15.4-2.7 16.2-2.8 1-.1 2.5 4 5.2 14.2 2.1 7.9 4.2 14.8 4.6 15.2.4.4 6.4 3.3 13.2 6.3 32.3 14.7 66 24 101.1 28 15.7 1.8 51.6 2.1 67.1.6 37.5-3.8 75.2-14.3 109.9-30.6l9.5-4.5 2.8-10.7c4.7-18.4 4.6-18.2 6.8-18.2 1.2 0 8.4 1.1 16.2 2.6l14.1 2.5 7-4.8c36.4-24.7 76.3-65.5 106.1-108.4 15.3-22 38.5-61.9 38.5-66.1 0-.8-2.3-7-5.1-13.8-2.8-6.7-4.8-12.4-4.6-12.6.2-.3 6.2-2.4 13.3-4.7l12.8-4.3 2.8-7c4.6-11.1 13.6-37.6 18.4-54.3 11.3-39.6 20.3-92.8 21.9-130.6.3-7.2.8-14.3 1.1-15.9.4-2.6-.8-4.1-9.8-13.2L901.6 519l10.3-10.4c8.3-8.5 10.1-10.8 9.7-12.7-.3-1.3-.7-8.5-1.1-15.9-1.6-38.5-10.5-91.3-21.9-131.1-4.8-16.7-13.8-43.2-18.4-54.4l-2.9-7-12.7-4.2c-7.1-2.3-13-4.4-13.3-4.6-.2-.3 1.8-6 4.6-12.7 2.8-6.8 5.1-13 5.1-13.8 0-4.2-23.2-44.1-38.5-66.1-29.8-42.9-69.9-83.9-106-108.3l-7-4.8-15.7 2.7c-8.7 1.5-16 2.4-16.3 2.1-.4-.3-2.3-6.8-4.3-14.4l-3.7-13.9-9.1-4.6c-31-15.4-72.5-27.1-110.3-30.9-14.2-1.4-54.2-1.1-68.1.6zm72.5 41.9c30.3 4 57.8 11.9 86 24.8 6.1 2.7 11.1 5.1 11.3 5.2.1.1 1.6 5.6 3.3 12.2l3.1 12 13.5-2.4 13.5-2.4 11.1 8c24.3 17.4 54.5 46.5 75 72.1 11.8 14.6 30.1 41.6 39.2 57.4 7.2 12.6 14.5 27.2 14.5 28.9 0 .7-1.2 4.2-2.6 7.8-1.4 3.5-3.5 8.5-4.5 11.1l-1.8 4.7 11.2 3.7c6.2 2 11.7 4.1 12.4 4.8 1.6 1.5 10.2 25.1 15.7 42.8 10.9 35 18.3 71.8 22.5 110.8.9 8 3.1 38.6 3.1 42.8 0 .7-3.7 5.1-8.1 9.7l-8.2 8.5 8.2 8.6 8.3 8.5-.7 10.2c-4 64.2-13.5 113.2-32.1 165.4-8.5 24-7 22-20.3 26.4-6.3 2.1-11.5 4-11.7 4.1-.1.2 1.8 5.2 4.2 11.3 2.4 6 4.4 11.5 4.4 12.2 0 4.1-16.5 33.3-31.5 55.8-16.4 24.6-30.3 41.4-52.4 63.5-19.3 19.3-30.1 28.6-47.3 40.9l-8.6 6.2-13.5-2.4-13.5-2.4-3.1 12c-1.7 6.6-3.2 12.1-3.3 12.3-.2.1-6.4 3-13.9 6.3-65.7 29.1-134.7 33.7-202.3 13.5-12.8-3.8-34.4-12.2-44.2-17.2l-6.1-3.1-1.7-6.8c-.9-3.7-2.3-9.1-3.1-11.9l-1.5-5.1-13.2 2.3-13.2 2.4-4.1-2.7c-6.4-4.2-19.3-14.1-28.5-21.8-40.8-34.4-78.6-82.8-103.4-132.4l-4.7-9.3 4.6-11.5c2.5-6.4 4.3-11.8 4-12.2-.3-.3-5.6-2.2-11.8-4.1l-11.2-3.6-5.3-13.9c-19.6-51.7-32.3-113.8-34.8-169.9l-.7-14.6 7.6-8c4.3-4.4 7.7-8.4 7.7-9 0-.6-3.4-4.6-7.7-9l-7.6-8 .7-14.6c2.6-57.6 16.4-123.5 36.8-175.4l3.4-8.5 11.1-3.5c6.2-1.9 11.4-3.8 11.8-4.1.3-.4-1.5-5.8-4-12.2l-4.6-11.5 4.7-9.3c24.8-49.6 62.4-97.7 103.4-132.4 9.8-8.3 28.6-22.4 31.5-23.6 1.3-.6 6.5-.1 14.8 1.4l12.7 2.4 1.5-5.1c.8-2.8 2.2-8.2 3.1-11.9l1.7-6.8 6.6-3.3c9.9-5 33.2-14 45.2-17.5 19.5-5.7 42.4-9.8 63.4-11.5 9.9-.8 42.3.3 54 1.9z"/><path d="M492.5 73.7c-25.2 2.4-58 10.9-82.2 21.5-10.3 4.5-9 2.6-12.8 17.7l-1.6 6.4 3.5 5.1c29.7 42.7 35.3 50.1 40.2 52.8l4.9 2.8H592l5.3-2.6c5-2.5 6.2-4 24.8-30.3l19.5-27.7-2.4-9.4c-1.3-5.2-2.8-10-3.4-10.7-1.5-1.9-29.7-12.7-42.3-16.2-26.5-7.5-47.4-10.2-76.5-9.9-11.3.1-22.3.3-24.5.5z"/><path d="M350 129.7c-34.4 24.7-64.7 57-91.5 97.3-12 18.1-25.5 41.2-25.5 43.7 0 .7 1.6 5.3 3.6 10.3l3.6 9H306v17h-66.2l-13.1 4.1c-7.3 2.3-13.7 4.6-14.4 5.3-1.7 1.6-10.7 27.5-15.8 45.4-10.8 37.5-17.2 74.3-20.5 117l-1.1 14.2 7.8 8.5 7.8 8.5H306v18H190.4l-7.7 8.5-7.8 8.5 1.1 14.2c3.3 42.7 9.7 79.5 20.5 117 4.6 16.1 14.1 43.6 15.5 45.2.5.4 6.2 2.6 12.7 4.7l11.8 3.9H306v18h-65.8l-3.6 9c-2 5-3.6 9.6-3.6 10.3 0 4.9 31.2 53.9 46.5 73 21.8 27.1 49.6 53.8 72.5 69.4l4.5 3.1 9.3-1.7 9.2-1.6 18.5-26.2 18.5-26.2V841l-13.3-18.8c-7.3-10.3-13.7-19.3-14.1-20-.5-.9 2.5-1.2 12.8-1.2h13.5l12.1 17c10.6 15 12.7 17.3 17 19.5l4.9 2.5h148.3l4.8-2.7c4.1-2.3 6.7-5.4 16.6-19.5l11.8-16.8h13.3c7.3 0 13.3.2 13.3.5s-6.3 9.4-14 20.3l-14 19.7v15l18.8 26.5 18.7 26.5 9.5 1.7 9.5 1.6 7-5.1c43-31.7 83.8-79.7 111.4-130.8l5.1-9.7-3.7-9.6-3.8-9.6H736l-4.5-9-4.5-9h74.5l12.1-4 12-4 4.6-12.8c16.4-45.5 26.6-93.1 30.7-142.5 2-23.5 2.3-22-6.7-31l-7.7-7.7h-74.8c-55.1 0-75.4.3-77 1.2-1.7.9-1.4.1 1.4-3.3 1.9-2.4 5.1-6.7 6.9-9.4 1.9-2.8 3.8-5.3 4.4-5.7.6-.4 32.2-.8 70.1-.8h69l7.9-7.9 7.9-8-.7-12.3c-2.8-50.7-13.7-103.9-31.4-153l-4.6-12.8-13.5-4.5-13.6-4.5h-101l-3-4.1c-7.4-10.1-24.2-24.1-40.8-34.1l-8.2-4.9-21.3-30.2c-20.1-28.6-21.6-30.4-27-33.4l-5.7-3.3H519l-72.5.1-6 3.2c-5.3 2.9-6.9 4.5-14.7 15.7-4.9 6.9-10.4 14.6-12.3 17.2L410 238h-13.1c-10.2 0-13-.3-12.6-1.3.2-.7 6.6-9.9 14.1-20.5L412 197v-16.1l-18.5-26.3-18.6-26.2-7.7-1.3c-4.2-.7-8.4-1.4-9.2-1.7-.9-.2-4.5 1.7-8 4.3zm215.6 125.6c27.9 4.5 48.7 10.5 67.3 19.3 36.7 17.4 62.6 45.7 74.9 81.9 13.2 38.8 11.5 91.7-4.3 128.4-13.1 30.8-37.4 55.5-71.6 73.1-5.4 2.8-9.9 5.3-9.9 5.5 0 .3 25.9 49.3 57.5 109.1 31.6 59.7 57.5 109.6 57.5 111v2.4H618.4l-49.9-97.5-50-97.5H431v195H321V252.9l117.3.4c102.7.3 118.4.5 127.3 2zM665 564.9c-7.8 11.1-14.3 20.1-14.5 20.1-.6 0-8.8-15.1-8.4-15.4.2-.1 4.8-2.9 10.2-6.2 5.5-3.2 13.6-8.9 18-12.5 4.5-3.6 8.4-6.4 8.6-6.3.2.2-6.1 9.3-13.9 20.3zM520.8 628c2.3 4.1 4.2 8.1 4.2 8.8 0 1-8 1.2-39.2 1l-39.3-.3-.3-7.4c-.2-4.1-.1-8 .2-8.8.5-1.1 6.8-1.3 35.3-1.1l34.8.3 4.3 7.5z"/><path d="M431.2 421.7l.3 79.8H483c45.4-.1 52.6-.3 60.5-1.9 40.9-8.1 62.6-35 62.5-77.4-.1-25.6-6.6-43.6-21-58.1-9.9-10.1-20.7-15.6-38.1-19.7-6.4-1.5-14.7-1.8-61.7-2.1l-54.2-.4.2 79.8zm158.2-20.1c.4 1 .9 5 1.3 9.1l.6 7.3-72.4-.2-72.4-.3-.3-7.4c-.2-4.1-.1-8 .2-8.8.4-1.1 13-1.3 71.5-1.3 64.9 0 70.9.1 71.5 1.6zM671.8 126.9c-4.8.9-9.4 2.3-10.2 3.1-.8.8-9.3 12.7-19 26.5l-17.6 25 .2 7.7.3 7.8 31 43.9c30 42.7 31.1 44 36.2 46.5l5.3 2.6h99.5l3.8-9.6 3.7-9.6-5.1-9.7c-27.6-51.2-68.3-99-111.5-130.9-3.9-2.8-7.3-5.2-7.5-5.1-.2.1-4.3.9-9.1 1.8zM439.6 860.8c-4.9 2.7-11.9 11.9-39.2 51.3l-4.5 6.6 1.6 6.4c3.8 15.1 2.5 13.2 12.8 17.7 19.8 8.7 42.4 15.3 65.8 19.3 15.8 2.7 52.1 3.7 69.5 2 15.4-1.6 33.8-5.2 49-9.6 12.9-3.7 39.1-13.8 41.1-15.8.6-.7 2.2-5.5 3.6-10.7l2.3-9.5-19.5-27.7c-18.6-26.2-19.8-27.7-24.8-30.2L592 858H444.5l-4.9 2.8z"/></svg>