<svg version="1" xmlns="http://www.w3.org/2000/svg" width="1384" height="1384" viewBox="0 0 1038.000000 1038.000000"><path d="M495.5 13.1c-27.9 2-59.7 8.6-86 17.9-10.6 3.8-31.4 12.7-37.5 16.1-4.3 2.3-4.4 2.6-6.7 11.4-5.2 20.1-5 19.8-8.6 19.2-22.7-4.1-28.2-4.8-30.6-3.7-3.8 1.8-23.4 16.7-35.6 27.3-14.2 12.2-40.6 39.2-51.6 52.7-23.4 28.7-43 58.6-60.4 92.2l-2.9 5.7 5.2 12.8c2.9 7.1 5.2 13.2 5.2 13.5 0 .3-5.9 2.4-13 4.7-15 4.8-12.7 1.9-21.5 26.2-7 18.9-12.5 37.1-18 59.4-5.7 23.4-7.8 34.3-12.5 65-2.3 14.9-5 46.1-5 57v9l9.7 9.7 9.7 9.8-9.7 9.8-9.7 9.9v8.9c0 11 2.7 41.6 5.1 57.4 7.2 47.9 16.6 86.6 30.4 124 8.8 24 6.5 21.2 21.2 26 7.1 2.3 12.9 4.3 13.1 4.5.2.1-2.1 6.2-4.9 13.5l-5.3 13.2 2.9 5.7c17.4 33.5 37 63.4 60.4 92.1 11 13.5 37.4 40.5 51.6 52.7 12.2 10.6 31.8 25.5 35.6 27.3 2 .9 5.5.6 17.1-1.4 8.1-1.4 15.2-2.6 15.7-2.6 1.1 0 2.5 4.4 6.4 19.5 2.3 8.8 2.4 9.1 6.7 11.4 7.8 4.3 29.2 13.2 42.5 17.7 30.4 10.1 53.7 14.5 87.5 16.6 51.4 3.1 104.7-7.2 155-30.1l12.5-5.7 3.9-14.4c2.1-8 4-14.7 4.2-14.9.2-.3 7.1.8 15.2 2.2 8.1 1.5 15.5 2.7 16.3 2.7 2 0 18.9-12.4 33.9-24.8 15.1-12.5 41.9-39.5 54.8-55.2 20.2-24.7 37.3-49.8 53.1-78.2 12.1-21.8 11.6-19.6 7.2-30.3-2.1-5-4.5-10.9-5.4-13.1l-1.6-4.1 13.3-4.3 13.2-4.3 4.2-10.6c21.7-55.3 35.3-118.5 39.2-182.9l1.1-17.3-9.6-10.1c-5.2-5.6-9.5-10.4-9.5-10.7 0-.4 4.3-5.2 9.5-10.8l9.6-10.2-1.1-17.3c-3.9-64.4-17.5-127.6-39.2-182.9l-4.2-10.6-13.2-4.3-13.3-4.3 1.6-4.1c.9-2.2 3.3-8.2 5.4-13.1 4.4-10.7 4.9-8.5-7.2-30.3-34.4-61.9-78.3-112.7-129.8-150.6-5.7-4.2-10.9-7.6-11.5-7.6-.6 0-6.5.9-13.1 2.1-6.6 1.1-13.6 2.3-15.6 2.6l-3.5.5-4-14.8-3.9-14.8-12.5-5.7C604.4 19 550.6 9.1 495.5 13.1zM559 57.5c29.4 4.6 55.1 12.2 81 24l11.4 5.3 3.2 11.6c1.7 6.4 3.3 11.9 3.6 12.2.3.2 6.4-.6 13.6-1.8l13.1-2.2 7.1 4.9c48.4 33 94.8 87.1 126.2 147.1l6.9 13.3-4.7 12c-2.6 6.7-4.5 12.3-4.3 12.5.2.2 5.6 1.9 12 3.9l11.6 3.7 4.8 12.7c15.6 41.9 26 84.3 31.4 128.3 2.4 19.2 4.1 40.4 4.1 50.4v7l-7.5 7.7c-4.1 4.2-7.5 8.2-7.5 8.9 0 .7 3.4 4.7 7.5 8.9l7.5 7.7v7c0 17.1-4.2 56.3-8.6 80.4-6.5 35.7-16 69.8-27.7 100.2l-4.2 10.8-11.7 3.7c-6.5 2-11.8 4-11.8 4.4 0 .4 2 6 4.6 12.4l4.5 11.6-6.9 13.2c-31.4 59.9-77.9 114.3-126.1 147.2l-7.2 4.9-13.1-2.2c-7.2-1.3-13.3-2-13.6-1.8-.3.3-1.9 5.8-3.6 12.2l-3.2 11.6-10.9 5.1c-27.2 12.4-54.8 20.4-86 24.9-12.2 1.8-58.9 1.7-71.5-.1-22-3.1-42.3-8-61.7-15-14-5-32.2-13-34.3-15.1-.9-.9-2.9-6.5-4.4-12.5-1.6-6.1-3-11.1-3.1-11.3-.2-.2-6.3.7-13.7 1.9l-13.4 2.3-7.5-5.2c-21-14.5-49.6-40.6-68.5-62.6-17.4-20.2-35.3-45.6-49.1-69.6-7.5-13-14.3-26.5-14.3-28.3 0-.8 1.8-5.8 4-11.2 2.2-5.4 4.1-10.4 4.2-11.3.2-1-3-2.6-11.6-5.6l-11.9-4.1-3.9-10c-20.3-52.5-32.4-111-36.3-176.7l-.7-10.7 8.3-8.5 8.2-8.6-8.2-8.5-8.3-8.5.7-10.7c3.9-65.8 16-124.3 36.3-176.8l3.9-10 11.9-4.1c8.6-3 11.8-4.6 11.6-5.6-.1-.9-2-5.9-4.2-11.3s-4-10.4-4-11.2c0-1.7 7.3-16.2 14.5-28.9 8.9-15.5 27.3-42.6 39.1-57.4 19.8-24.9 54.6-57.8 78.3-74.2l7.5-5.2 13.4 2.3c7.4 1.2 13.5 2.1 13.7 1.9.1-.2 1.5-5.2 3.1-11.3 1.5-6 3.5-11.6 4.4-12.5 2.1-2.1 20.3-10.1 34.4-15.2 20.7-7.4 41.9-12.4 64.6-15.3 15.4-1.9 58.2-1.4 73 1z"/><path d="M494 73.1c-29.1 2.9-63.9 12.2-88.3 23.4l-5.1 2.4-2.7 10.3-2.6 10.2 19.8 28.1c19.1 27.1 20 28.1 25.4 30.8l5.5 2.7h72.8l72.7-.1 5.9-3.2c5.6-3 6.8-4.4 20.8-24.2 8.1-11.6 16.8-24 19.4-27.6l4.5-6.6-2.1-8.4c-3.1-12.8-2.4-12-16.2-17.7-22.5-9.2-42.7-14.8-66-18.3-15.5-2.3-49.2-3.3-63.8-1.8z"/><path d="M346.1 132.1c-31.2 23.4-62.3 56.4-86 91.4-9.4 13.8-20 31.4-25 41.4l-3.1 6 3.9 9.8 3.9 9.8 33.1.3 33.1.2v16h-68.5l-12.5 4.1c-6.9 2.3-13 4.8-13.6 5.5-1.9 2.3-15.1 42.9-19.3 59.4-9 34.8-17.1 88-17.1 112.4v6.1l8.3 8.3 8.2 8.2H306v16H191.5l-8.3 8.3-8.2 8.2v6.1c0 3.3.7 13.2 1.5 22 3 31.8 8.2 61.8 15.6 90.4 4.2 16.5 17.4 57.1 19.3 59.4.6.7 6.7 3.2 13.6 5.5l12.5 4.1H306v16l-33.1.2-33.1.3-3.9 9.8-3.9 9.8 3.1 6c9.5 18.9 28.4 47.7 44.7 68.1 18.8 23.5 48.5 52.2 69.5 67.2l6.9 4.9 9.6-1.7c5.4-1 10-2.3 10.4-2.9.4-.7 8.8-12.7 18.8-26.7l18-25.5v-15l-14-19.7c-7.7-10.9-14-20-14-20.3 0-.3 5.7-.5 12.8-.5h12.7l12 17.1c11.2 16 12.4 17.3 17.7 20l5.7 2.9h146.7l5.4-3.3c4.6-2.7 7.1-5.6 17.1-19.7l11.6-16.5 13.3-.3c10.7-.2 13.1 0 12.3 1-.6.7-6.9 9.7-14.2 20L625 840.9V857.2l18.5 26.3 18.6 26.3 9.3 1.7c6.6 1.2 9.9 1.4 11.2.7 1.1-.6 6.2-4.3 11.5-8.4 34.2-26 67.3-62.9 92.2-102.8 7.7-12.3 18.7-32 18.7-33.5 0-.5-1.6-5.4-3.7-10.7l-3.8-9.8h-61.3l-4.1-8-4.2-8h71.6l12.5-4.1c6.9-2.3 13-4.6 13.6-5.3 1.9-1.8 10.1-25.5 15.8-45.4 10.9-37.8 17.5-75.5 20.6-117l1-14.3-8.2-9-8.3-8.9-75.6.2-75.6.3 3.2-4c1.8-2.2 4.5-5.9 6-8.3l2.8-4.2h139.2l8.3-9 8.2-8.9-1-14.3c-3.9-52.9-14.9-105.8-31.5-150.8l-4.6-12.6-13.7-4.2-13.7-4.3-50 .1h-50l-5-6.1c-8.8-10.8-24.1-23.3-40.6-33.3l-7.4-4.5-21-29.8c-19.1-27-21.6-30.1-26.5-33.1l-5.4-3.2H445.9l-5.7 2.9c-5.3 2.7-6.5 4-17.7 20l-12 17.1h-12.7c-7.1 0-12.8-.2-12.8-.5s6.3-9.4 14-20.3l14-19.7v-15l-18.8-26.6-18.7-26.7-8.6-1.6c-4.8-.9-9.3-1.6-10.1-1.6-.7 0-5.6 3.2-10.7 7.1zm216.2 123.3c30.1 4.2 52.5 10.8 74.2 21.6 16.5 8.2 27.6 16.3 40.1 29.1 28.3 29.4 40.6 65.4 39.1 114.9-.8 25.6-3.5 40.4-11.2 60.5-12.1 31.5-38.5 58.9-73.7 76.6L621 563l3.9 7.3c2.2 3.9 28 52.8 57.5 108.5C718.7 747.3 736 781 736 783v3l-58.7-.2-58.8-.3-49.7-97-49.6-97-44.1-.3-44.1-.2v195H322V252.9l114.3.4c100.3.3 115.6.6 126 2.1zm112.9 294.3c-1.1 1.6-7.1 10.1-13.4 18.9l-11.4 16.2-3.9-7.4c-2.1-4.1-3.7-7.5-3.4-7.7.2-.2 3.7-2.3 7.8-4.7 4-2.4 11.4-7.4 16.5-11.2 5-3.7 9.2-6.8 9.4-6.8.2 0-.5 1.2-1.6 2.7zm-154.9 78.8c2 4.2 3.7 7.8 3.7 8 0 .3-17.3.5-38.5.5H447v-16h69.6l3.7 7.5z"/><path d="M431 422.1v80l54.3-.3 54.2-.4 9.9-2.7c24.4-6.6 39.4-18.3 49.1-38.2 6.2-12.7 8-21.8 7.9-39-.1-24.6-6.2-41.7-19.9-56.3-8.3-8.8-15.3-13.4-26.7-17.4-15.4-5.4-20.3-5.8-76.9-5.8H431v80.1zm158.3-18.9c.3 1.3.9 4.9 1.2 8l.7 5.8H447v-16h141.8l.5 2.2zM673 126.1c-2.5.4-5.9 1.1-7.7 1.4-2.8.5-5.2 3.5-21.7 26.9L625 180.8l.1 8.3v8.4l30.8 43.5c29.7 41.9 31 43.6 36.6 46.7l5.7 3.3H797.5l3.9-10.1 3.9-10-2.2-4.6c-3.8-7.8-14-25.1-21.7-36.9-25.1-38.3-55.4-71.2-89.1-96.7-10.6-8-11.1-8.2-19.3-6.6zM440.2 859.8c-5.1 2.6-6.4 4.2-25.1 30.7l-19.8 28.1 2.6 10.2 2.6 10.1 6.5 3c35.8 16.5 80.9 25.3 121.5 23.7 33.5-1.3 63.6-7.9 95.3-20.8 13.8-5.7 13.1-4.9 16.2-17.7l2.1-8.4-4.5-6.6c-2.6-3.6-11.3-16.1-19.5-27.6-13.6-19.3-15.3-21.3-20.6-24.3l-5.7-3.2-73.2.1h-73.1l-5.3 2.7z"/></svg>